<?xml version="1.0" encoding="utf-8"?>
<!-- Generator: Adobe Illustrator 16.0.0, SVG Export Plug-In . SVG Version: 6.00 Build 0)  -->
<!DOCTYPE svg PUBLIC "-//W3C//DTD SVG 1.1//EN" "http://www.w3.org/Graphics/SVG/1.1/DTD/svg11.dtd">
<svg version="1.1" id="Calque_1" xmlns="http://www.w3.org/2000/svg" xmlns:xlink="http://www.w3.org/1999/xlink" x="0px" y="0px"
	 width="64px" height="64px" viewBox="0 0 64 64" enable-background="new 0 0 64 64" xml:space="preserve">
<path fill="#FFFFFF" d="M59,15.268l-26-15c-0.621-0.357-1.383-0.357-2,0l-26,15C4.383,15.625,4,16.285,4,17v30
	c0,0.715,0.383,1.375,1,1.732l26,15C31.309,63.91,31.656,64,32,64c0.346,0,0.691-0.09,1-0.268l26-15c0.621-0.357,1-1.018,1-1.732V17
	C60,16.285,59.621,15.625,59,15.268z M8,44V34h48v10H8z M34,5.461L52.264,16H34V5.461z M34,20h22v10H34V20z M30,5.461V30H8V18.156
	L30,5.461z M32,59.691L11.734,48h40.531L32,59.691z"/>
</svg>
