<?xml version="1.0" encoding="utf-8"?>
<!-- Generator: Adobe Illustrator 16.0.0, SVG Export Plug-In . SVG Version: 6.00 Build 0)  -->
<!DOCTYPE svg PUBLIC "-//W3C//DTD SVG 1.1//EN" "http://www.w3.org/Graphics/SVG/1.1/DTD/svg11.dtd">
<svg version="1.1" id="Calque_1" xmlns="http://www.w3.org/2000/svg" xmlns:xlink="http://www.w3.org/1999/xlink" x="0px" y="0px"
	 width="64px" height="64px" viewBox="0 0 64 64" enable-background="new 0 0 64 64" xml:space="preserve">
<path fill="#FFFFFF" d="M64,31.999c0-0.703-0.371-1.354-0.969-1.715l-7.145-4.285l7.141-4.285C63.629,21.353,64,20.702,64,19.999
	s-0.371-1.354-0.969-1.715l-30-18c-0.635-0.379-1.426-0.379-2.059,0l-30,18C0.367,18.646,0,19.296,0,19.999s0.367,1.354,0.969,1.715
	l7.145,4.285l-7.145,4.285C0.367,30.646,0,31.296,0,31.999s0.367,1.354,0.969,1.715l7.145,4.285l-7.145,4.285
	C0.367,42.646,0,43.296,0,43.999s0.367,1.354,0.969,1.715l30,18c0.32,0.189,0.676,0.285,1.031,0.285s0.711-0.096,1.031-0.285l30-18
	C63.629,45.353,64,44.702,64,43.999s-0.371-1.354-0.969-1.715l-7.145-4.285l7.141-4.285C63.629,33.353,64,32.702,64,31.999z
	 M32,35.667L5.887,19.999L32,4.331l26.113,15.668L32,35.667z M58.113,43.999L32,59.667L5.887,43.999L12,40.331l18.969,11.383
	c0.32,0.189,0.676,0.285,1.031,0.285s0.711-0.096,1.031-0.285L52,40.331L58.113,43.999z M5.887,31.999L12,28.331l18.969,11.383
	c0.32,0.189,0.676,0.285,1.031,0.285s0.711-0.096,1.031-0.285L52,28.331l6.113,3.668L32,47.667L5.887,31.999z"/>
</svg>
