<?xml version="1.0" encoding="utf-8"?>
<!-- Generator: Adobe Illustrator 16.0.0, SVG Export Plug-In . SVG Version: 6.00 Build 0)  -->
<!DOCTYPE svg PUBLIC "-//W3C//DTD SVG 1.1//EN" "http://www.w3.org/Graphics/SVG/1.1/DTD/svg11.dtd">
<svg version="1.1" id="Calque_1" xmlns="http://www.w3.org/2000/svg" xmlns:xlink="http://www.w3.org/1999/xlink" x="0px" y="0px"
	 width="214px" height="325px" viewBox="0 0 214 325" enable-background="new 0 0 214 325" xml:space="preserve">
<path fill="#FFFFFF" d="M53.304,130.481c1-49.512,24.681-67.63,53.709-67.63c29.002,0,52.711,18.119,53.709,67.63h52.091
	c0.782-2.888,1.188-5.322,1.188-7.239C214,42.627,165.962,0,107.013,0C48.037,0,0,42.627,0,123.242c0,1.917,0.432,4.351,1.188,7.239
	H53.304z"/>
<path fill="#FFFFFF" d="M149.442,161.784c-15.784,30.626-42.443,73.299-42.443,73.299s-26.685-42.673-42.44-73.299h-50.62
	C42.837,222.335,106.999,325,106.999,325s64.163-102.665,93.062-163.216H149.442z"/>
</svg>
