<?xml version="1.0" encoding="utf-8"?>
<!-- Generator: Adobe Illustrator 16.0.0, SVG Export Plug-In . SVG Version: 6.00 Build 0)  -->
<!DOCTYPE svg PUBLIC "-//W3C//DTD SVG 1.1//EN" "http://www.w3.org/Graphics/SVG/1.1/DTD/svg11.dtd">
<svg version="1.1" id="Calque_1" xmlns="http://www.w3.org/2000/svg" xmlns:xlink="http://www.w3.org/1999/xlink" x="0px" y="0px"
	 width="64px" height="64px" viewBox="0 0 64 64" enable-background="new 0 0 64 64" xml:space="preserve">
<path fill="#FFFFFF" d="M32,0C19.871,0,10,9.871,10,22c0,9.027,9.258,16.941,9.652,17.271C20.879,40.309,22,42.719,22,44.324V52
	c0,1.801,0.814,3.4,2.076,4.502c0.01,0.041,0.012,0.088,0.025,0.131l2,6C26.375,63.449,27.137,64,28,64h8
	c0.863,0,1.625-0.551,1.896-1.367l2-6c0.014-0.043,0.016-0.09,0.027-0.131C41.186,55.402,42,53.801,42,52v-7.676
	c0-1.609,1.121-4.016,2.346-5.051C44.74,38.941,54,31.027,54,22C54,9.871,44.129,0,32,0z M38,46v2H26v-2H38z M34,42h-4V30h4V42z
	 M36,54h-8c-1.102,0-2-0.896-2-2h12C38,53.104,37.104,54,36,54z M34.559,60h-5.117l-0.668-2h6.449L34.559,60z M41.766,36.215
	c-1.58,1.336-2.867,3.574-3.441,5.785H38V28c0-1.104-0.895-2-2-2h-8c-1.104,0-2,0.896-2,2v14h-0.326
	c-0.574-2.207-1.861-4.449-3.443-5.785C22.15,36.146,14,29.188,14,22c0-9.924,8.076-18,18-18c9.926,0,18,8.076,18,18
	C50,29.16,41.848,36.146,41.766,36.215z"/>
</svg>
