<?xml version="1.0" encoding="utf-8"?>
<!-- Generator: Adobe Illustrator 16.0.0, SVG Export Plug-In . SVG Version: 6.00 Build 0)  -->
<!DOCTYPE svg PUBLIC "-//W3C//DTD SVG 1.1//EN" "http://www.w3.org/Graphics/SVG/1.1/DTD/svg11.dtd">
<svg version="1.1" id="Calque_1" xmlns="http://www.w3.org/2000/svg" xmlns:xlink="http://www.w3.org/1999/xlink" x="0px" y="0px"
	 width="200px" height="100px" viewBox="0 0 200 100" enable-background="new 0 0 200 100" xml:space="preserve">
<path fill="#FFFFFF" d="M200,0c0,55.229-44.771,100-100,100S0,55.229,0,0H200z"/>
<g>
	<path fill="#232C3A" d="M42.539,55h-3.588V29.504h-6.832v-3.281h17.252v3.281h-6.832V55z"/>
	<path fill="#232C3A" d="M52.196,26.223h15.457v3.281h-11.87v8.053h11.527v3.283H55.783v10.878h11.87V55H52.196V26.223z"/>
	<path fill="#232C3A" d="M89.982,55h-4.352l-8.473-12.177H75.67V55h-3.588V26.223h4.351c2.558,0,5.306,0.037,7.596,1.334
		c2.404,1.413,3.778,4.123,3.778,6.871c0,4.122-2.748,7.557-6.907,8.053L89.982,55z M75.67,39.848h1.145
		c3.664,0,7.634-0.688,7.634-5.268c0-4.504-4.274-5.152-7.824-5.152H75.67V39.848z"/>
	<path fill="#448AFF" d="M92.808,26.223h15.458v3.281h-11.87v8.053h11.526v3.283H96.396v10.878h11.87V55H92.808V26.223z"/>
	<path fill="#448AFF" d="M132.805,47.785L129.523,55h-3.855l13.74-30l13.74,30h-3.855l-3.281-7.215H132.805z M139.408,32.863
		l-5.115,11.641h10.23L139.408,32.863z"/>
	<path fill="#448AFF" d="M159.141,51.718h8.74V55h-12.326V26.223h3.586V51.718z"/>
	<ellipse fill="#448AFF" cx="118.853" cy="54.295" rx="3.782" ry="0.705"/>
	<g>
		<g>
			<g>
				<path fill="#232C3A" d="M114.969,38.137c0.072-3.581,1.785-4.892,3.885-4.892c2.098,0,3.812,1.311,3.885,4.892h3.768
					c0.057-0.209,0.086-0.385,0.086-0.523c0-5.831-3.475-8.914-7.738-8.914c-4.266,0-7.74,3.083-7.74,8.914
					c0,0.139,0.031,0.314,0.086,0.523H114.969z"/>
			</g>
			<path fill="#448AFF" d="M121.926,40.41c-1.143,2.217-3.072,5.306-3.072,5.306s-1.932-3.089-3.072-5.306h-3.664
				c2.092,4.383,6.736,11.814,6.736,11.814s4.645-7.432,6.736-11.814H121.926z"/>
		</g>
	</g>
</g>
</svg>
